<?xml version="1.0" standalone="no"?>
<!DOCTYPE svg PUBLIC "-//W3C//DTD SVG 20010904//EN"
 "http://www.w3.org/TR/2001/REC-SVG-20010904/DTD/svg10.dtd">
<svg version="1.0" xmlns="http://www.w3.org/2000/svg"
 width="64.000000pt" height="64.000000pt" viewBox="0 0 64.000000 64.000000"
 preserveAspectRatio="xMidYMid meet">

<g transform="translate(0.000000,64.000000) scale(0.100000,-0.100000)"
fill="#000000" stroke="none">
<path d="M123 447 c-4 -8 -17 -16 -28 -18 -13 -3 -21 -14 -23 -32 -2 -15 -12
-32 -23 -37 -12 -7 -19 -21 -19 -40 0 -19 7 -33 19 -40 11 -5 21 -22 23 -37 2
-18 10 -29 23 -32 11 -2 24 -10 30 -18 7 -9 23 -13 45 -11 33 3 35 5 40 48 l5
45 105 0 105 0 5 -45 c5 -43 7 -45 40 -48 22 -2 38 2 45 11 6 8 19 16 30 18
13 3 21 14 23 32 2 15 12 32 23 37 26 14 26 66 0 80 -11 5 -21 22 -23 37 -2
18 -10 29 -23 32 -11 2 -24 10 -30 18 -7 9 -23 13 -45 11 -33 -3 -35 -5 -40
-48 l-5 -45 -105 0 -105 0 -5 45 c-5 44 -6 45 -42 48 -24 2 -39 -2 -45 -11z"/>
</g>
</svg>
