<?xml version="1.0" encoding="UTF-8"?>
<svg version="1.1" xmlns="http://www.w3.org/2000/svg" width="192" height="192">
<path d="M0 0 C63.36 0 126.72 0 192 0 C192 63.36 192 126.72 192 192 C128.64 192 65.28 192 0 192 C0 128.64 0 65.28 0 0 Z " fill="#FDFDFD" transform="translate(0,0)"/>
<path d="M0 0 C0.69867188 -0.01998047 1.39734375 -0.03996094 2.1171875 -0.06054688 C7.60748462 -0.05536735 8.34390899 0.71262719 13 4.4375 C13 13.0175 13 21.5975 13 30.4375 C34.78 30.4375 56.56 30.4375 79 30.4375 C79 21.8575 79 13.2775 79 4.4375 C83.06221876 0.37528124 83.75099568 -0.08684548 89.15039062 -0.15820312 C90.28250977 -0.14176758 90.28250977 -0.14176758 91.4375 -0.125 C92.18837891 -0.14884766 92.93925781 -0.17269531 93.71289062 -0.19726562 C97.81500204 -0.18644211 99.60031655 0.1530406 103.03515625 2.59765625 C105.30334928 5.87593922 105.45369216 7.53574743 105 11.4375 C105.80824219 11.37949219 106.61648437 11.32148437 107.44921875 11.26171875 C115.93214683 10.90357341 115.93214683 10.90357341 120.25 13.0625 C123.11174399 18.58157769 122.37092122 24.34614922 122 30.4375 C122.9075 30.375625 123.815 30.31375 124.75 30.25 C128 30.4375 128 30.4375 130.34375 31.34765625 C133.09360569 34.81740341 132.57686387 38.58663632 132.5 42.875 C132.52320313 44.16374023 132.52320313 44.16374023 132.546875 45.47851562 C132.52290492 49.34069451 132.44954465 51.73243587 130.34375 55.03515625 C127.39000402 56.80248093 125.38439343 56.74517213 122 56.4375 C122.08701172 57.86642578 122.08701172 57.86642578 122.17578125 59.32421875 C122.53820279 69.39953748 122.53820279 69.39953748 120.25 73.8125 C115.27354411 76.30072794 110.45894119 75.82929004 105 75.4375 C105.0825 76.51 105.165 77.5825 105.25 78.6875 C105 82.4375 105 82.4375 103.48046875 84.64453125 C100.08845381 87.09639717 97.08669458 86.98871926 93.0625 86.875 C92.00772461 86.88563477 92.00772461 86.88563477 90.93164062 86.89648438 C86.46711665 86.84208999 83.54040547 86.18517711 80 83.4375 C75.97231801 75.38213602 79 65.44367072 79 56.4375 C57.22 56.4375 35.44 56.4375 13 56.4375 C13 65.0175 13 73.5975 13 82.4375 C8.49222687 86.94527313 8.49222687 86.94527313 4.55859375 86.96875 C3.72779297 86.97390625 2.89699219 86.9790625 2.04101562 86.984375 C0.75227539 86.96117187 0.75227539 86.96117187 -0.5625 86.9375 C-1.42552734 86.95296875 -2.28855469 86.9684375 -3.17773438 86.984375 C-9.41234747 86.94562061 -9.41234747 86.94562061 -12.078125 84.640625 C-13.3817055 81.52528855 -13.19233305 78.77127292 -13 75.4375 C-13.89203125 75.49550781 -14.7840625 75.55351562 -15.703125 75.61328125 C-17.45882812 75.68095703 -17.45882812 75.68095703 -19.25 75.75 C-20.41015625 75.80800781 -21.5703125 75.86601562 -22.765625 75.92578125 C-26 75.4375 -26 75.4375 -28.40625 73.34375 C-30.3369733 69.82301928 -30.41114883 67.61343343 -30.25 63.625 C-30.21390625 62.46355469 -30.1778125 61.30210938 -30.140625 60.10546875 C-30.09421875 59.22503906 -30.0478125 58.34460938 -30 57.4375 C-31.093125 57.334375 -32.18625 57.23125 -33.3125 57.125 C-37.8949992 56.27063574 -37.8949992 56.27063574 -40 53.4375 C-40.38818359 51.30859375 -40.38818359 51.30859375 -40.3984375 48.875 C-40.40230469 47.99585938 -40.40617187 47.11671875 -40.41015625 46.2109375 C-40.39855469 45.29570313 -40.38695312 44.38046875 -40.375 43.4375 C-40.39240234 42.06464844 -40.39240234 42.06464844 -40.41015625 40.6640625 C-40.40628906 39.78492188 -40.40242188 38.90578125 -40.3984375 38 C-40.39336182 36.79537109 -40.39336182 36.79537109 -40.38818359 35.56640625 C-39.90260066 32.90333507 -39.18445485 32.00845637 -37 30.4375 C-33.3125 30.25 -33.3125 30.25 -30 30.4375 C-30.03480469 29.55707031 -30.06960937 28.67664063 -30.10546875 27.76953125 C-30.14607422 26.02736328 -30.14607422 26.02736328 -30.1875 24.25 C-30.22230469 23.10144531 -30.25710937 21.95289062 -30.29296875 20.76953125 C-29.88827165 16.16677618 -28.21682591 13.65432591 -25 10.4375 C-22.3984375 10.2421875 -22.3984375 10.2421875 -19.375 10.3125 C-17.87066406 10.33957031 -17.87066406 10.33957031 -16.3359375 10.3671875 C-15.56507812 10.39039063 -14.79421875 10.41359375 -14 10.4375 C-13.938125 9.344375 -13.87625 8.25125 -13.8125 7.125 C-13 3.4375 -13 3.4375 -10.94921875 1.734375 C-7.2583218 0.11135806 -3.95962616 -0.04018071 0 0 Z " fill="#070A14" transform="translate(50,52.5625)"/>
<path d="M0 0 C1.26714844 -0.01417969 2.53429687 -0.02835938 3.83984375 -0.04296875 C7.0625 0.1875 7.0625 0.1875 9.0625 2.1875 C9.20767744 5.0968558 9.24880796 7.907446 9.1875 10.8125 C9.17847656 11.61429688 9.16945312 12.41609375 9.16015625 13.2421875 C9.13656223 15.22408523 9.10069065 17.20582981 9.0625 19.1875 C10.3825 18.8575 11.7025 18.5275 13.0625 18.1875 C13.3925 15.8775 13.7225 13.5675 14.0625 11.1875 C15.70824566 11.16061849 17.35411413 11.14115877 19 11.125 C19.91652344 11.11339844 20.83304688 11.10179688 21.77734375 11.08984375 C24.0625 11.1875 24.0625 11.1875 25.0625 12.1875 C25.16111598 13.80877423 25.19048767 15.43432368 25.19189453 17.05859375 C25.19504669 18.09636963 25.19819885 19.13414551 25.20144653 20.20336914 C25.1994223 21.33250732 25.19739807 22.46164551 25.1953125 23.625 C25.19626923 24.77540771 25.19722595 25.92581543 25.19821167 27.11108398 C25.19889369 29.54899144 25.1970379 31.9869007 25.19287109 34.42480469 C25.18752317 38.17126518 25.19281539 41.91760577 25.19921875 45.6640625 C25.19855797 48.02604193 25.19727682 50.38802129 25.1953125 52.75 C25.19733673 53.87913818 25.19936096 55.00827637 25.20144653 56.17163086 C25.19671829 57.72829468 25.19671829 57.72829468 25.19189453 59.31640625 C25.19109894 60.23494385 25.19030334 61.15348145 25.18948364 62.09985352 C25.0625 64.1875 25.0625 64.1875 24.0625 65.1875 C20.7625 65.1875 17.4625 65.1875 14.0625 65.1875 C13.5675 45.8825 13.5675 45.8825 13.0625 26.1875 C11.7425 25.8575 10.4225 25.5275 9.0625 25.1875 C9.06694122 25.79693451 9.07138245 26.40636902 9.07595825 27.03427124 C9.12010407 33.36038882 9.15032987 39.68646285 9.17236328 46.01269531 C9.18243924 48.37566911 9.19610029 50.73863039 9.21337891 53.1015625 C9.23755724 56.49221888 9.24896699 59.88271084 9.2578125 63.2734375 C9.26813507 64.33493011 9.27845764 65.39642273 9.28909302 66.49008179 C9.28924408 67.47094757 9.28939514 68.45181335 9.28955078 69.46240234 C9.293992 70.32844086 9.29843323 71.19447937 9.30300903 72.08676147 C9.0625 74.1875 9.0625 74.1875 7.0625 76.1875 C3.83984375 76.41796875 3.83984375 76.41796875 0 76.375 C-1.26972656 76.36855469 -2.53945312 76.36210937 -3.84765625 76.35546875 C-6.9375 76.1875 -6.9375 76.1875 -7.9375 75.1875 C-8.03721155 72.89238504 -8.06549866 70.59415451 -8.06689453 68.296875 C-8.06864685 67.57657104 -8.07039917 66.85626709 -8.07220459 66.11413574 C-8.07662288 63.72189966 -8.07368521 61.3297369 -8.0703125 58.9375 C-8.07098555 57.28222642 -8.07195558 55.62695293 -8.07321167 53.97167969 C-8.07468861 50.49803733 -8.07253421 47.02442063 -8.06787109 43.55078125 C-8.0621738 39.08817502 -8.06545283 34.62562892 -8.07144356 30.1630249 C-8.07504927 26.7436477 -8.07391054 23.32428485 -8.07131577 19.90490723 C-8.07064652 18.25899244 -8.07147482 16.61307637 -8.07379532 14.96716309 C-8.07632202 12.67078169 -8.07248103 10.37449901 -8.06689453 8.078125 C-8.06609894 6.76875977 -8.06530334 5.45939453 -8.06448364 4.11035156 C-7.82785881 -1.336171 -4.79911867 0.02436101 0 0 Z " fill="#3469F4" transform="translate(141.9375,57.8125)"/>
<path d="M0 0 C1.16789062 0.00644531 2.33578125 0.01289062 3.5390625 0.01953125 C6.375 0.1875 6.375 0.1875 7.375 1.1875 C7.47471155 3.48261496 7.50299866 5.78084549 7.50439453 8.078125 C7.50614685 8.79842896 7.50789917 9.51873291 7.50970459 10.26086426 C7.51412288 12.65310034 7.51118521 15.0452631 7.5078125 17.4375 C7.50848555 19.09277358 7.50945558 20.74804707 7.51071167 22.40332031 C7.51218861 25.87696267 7.51003421 29.35057937 7.50537109 32.82421875 C7.4996738 37.28682498 7.50295283 41.74937108 7.50894356 46.2119751 C7.51254927 49.6313523 7.51141054 53.05071515 7.50881577 56.47009277 C7.50814652 58.11600756 7.50897482 59.76192363 7.51129532 61.40783691 C7.51382202 63.70421831 7.50998103 66.00050099 7.50439453 68.296875 C7.50359894 69.60624023 7.50280334 70.91560547 7.50198364 72.26464844 C7.375 75.1875 7.375 75.1875 6.375 76.1875 C4.06506618 76.31307162 1.75081464 76.36325729 -0.5625 76.375 C-1.82964844 76.38917969 -3.09679687 76.40335937 -4.40234375 76.41796875 C-7.625 76.1875 -7.625 76.1875 -9.625 74.1875 C-9.77017744 71.2781442 -9.81130796 68.467554 -9.75 65.5625 C-9.74097656 64.76070313 -9.73195313 63.95890625 -9.72265625 63.1328125 C-9.69906223 61.15091477 -9.66319065 59.16917019 -9.625 57.1875 C-11.605 57.6825 -11.605 57.6825 -13.625 58.1875 C-13.955 60.4975 -14.285 62.8075 -14.625 65.1875 C-16.27074566 65.21438151 -17.91661413 65.23384123 -19.5625 65.25 C-20.47902344 65.26160156 -21.39554688 65.27320312 -22.33984375 65.28515625 C-24.625 65.1875 -24.625 65.1875 -25.625 64.1875 C-25.72361598 62.56622577 -25.75298767 60.94067632 -25.75439453 59.31640625 C-25.75754669 58.27863037 -25.76069885 57.24085449 -25.76394653 56.17163086 C-25.7619223 55.04249268 -25.75989807 53.91335449 -25.7578125 52.75 C-25.75924759 51.02438843 -25.75924759 51.02438843 -25.76071167 49.26391602 C-25.76139369 46.82600856 -25.7595379 44.3880993 -25.75537109 41.95019531 C-25.75002317 38.20373482 -25.75531539 34.45739423 -25.76171875 30.7109375 C-25.76105797 28.34895807 -25.75977682 25.98697871 -25.7578125 23.625 C-25.75983673 22.49586182 -25.76186096 21.36672363 -25.76394653 20.20336914 C-25.76079437 19.16559326 -25.75764221 18.12781738 -25.75439453 17.05859375 C-25.75359894 16.14005615 -25.75280334 15.22151855 -25.75198364 14.27514648 C-25.625 12.1875 -25.625 12.1875 -24.625 11.1875 C-21.325 11.1875 -18.025 11.1875 -14.625 11.1875 C-14.295 24.0575 -13.965 36.9275 -13.625 50.1875 C-12.305 50.5175 -10.985 50.8475 -9.625 51.1875 C-9.63166183 50.57806549 -9.63832367 49.96863098 -9.64518738 49.34072876 C-9.71140579 43.01464091 -9.75674421 36.68865102 -9.78979492 30.36230469 C-9.804909 27.9993083 -9.82540076 25.63634009 -9.85131836 23.2734375 C-9.88758629 19.88274191 -9.90469999 16.49241621 -9.91796875 13.1015625 C-9.93345261 12.04006989 -9.94893646 10.97857727 -9.96488953 9.88491821 C-9.96522942 8.41361954 -9.96522942 8.41361954 -9.96557617 6.91259766 C-9.97556892 5.61353989 -9.97556892 5.61353989 -9.98576355 4.28823853 C-9.86671158 3.59499481 -9.74765961 2.9017511 -9.625 2.1875 C-6.0174497 -0.21753353 -4.27663611 -0.0521541 0 0 Z " fill="#356AF5" transform="translate(50.625,57.8125)"/>
<path d="M0 0 C21.12 0 42.24 0 64 0 C64 5.28 64 10.56 64 16 C42.88 16 21.76 16 0 16 C0 10.72 0 5.44 0 0 Z " fill="#366DFC" transform="translate(64,88)"/>
<path d="M0 0 C1.65 0 3.3 0 5 0 C6.93923052 1.93923052 6.21866472 5.36539595 6.25 7.9375 C6.28867188 9.83822266 6.28867188 9.83822266 6.328125 11.77734375 C6.21984375 12.84082031 6.1115625 13.90429688 6 15 C3 17 3 17 0 17 C0 11.39 0 5.78 0 0 Z " fill="#3162E3" transform="translate(172,88)"/>
<path d="M0 0 C1.65 0 3.3 0 5 0 C5 5.28 5 10.56 5 16 C3.35 16 1.7 16 0 16 C-1 15 -1 15 -1.1328125 11.875 C-1.13023438 10.59625 -1.12765625 9.3175 -1.125 8 C-1.12757812 6.72125 -1.13015625 5.4425 -1.1328125 4.125 C-1 1 -1 1 0 0 Z " fill="#3163E7" transform="translate(15,88)"/>
<path d="M0 0 C0.33 0 0.66 0 1 0 C1 1.98 1 3.96 1 6 C0.26394531 6.02578125 -0.47210938 6.0515625 -1.23046875 6.078125 C-8.91941156 6.49060043 -8.91941156 6.49060043 -15 11 C-14.43447641 7.71996319 -13.67167078 6.02678473 -11 4 C-8.30078125 3.70703125 -8.30078125 3.70703125 -5.3125 3.8125 C-4.31863281 3.83957031 -3.32476562 3.86664063 -2.30078125 3.89453125 C-1.16189453 3.94673828 -1.16189453 3.94673828 0 4 C0 2.68 0 1.36 0 0 Z " fill="#464647" transform="translate(36,59)"/>
</svg>
